<?xml version="1.0" standalone="no"?>
<!DOCTYPE svg PUBLIC "-//W3C//DTD SVG 20010904//EN"
 "http://www.w3.org/TR/2001/REC-SVG-20010904/DTD/svg10.dtd">
<svg version="1.0" xmlns="http://www.w3.org/2000/svg"
 width="485.000000pt" height="485.000000pt" viewBox="0 0 485.000000 485.000000"
 preserveAspectRatio="xMidYMid meet">
<metadata>
Created by potrace 1.11, written by Peter Selinger 2001-2013
</metadata>
<g transform="translate(0.000000,485.000000) scale(0.100000,-0.100000)"
fill="#000000" stroke="none">
<path d="M357 4345 c-172 -59 -295 -198 -327 -370 -8 -43 -10 -477 -8 -1540 4
-1621 -1 -1489 60 -1606 33 -63 134 -161 199 -193 123 -59 -12 -56 2149 -56
1913 0 1987 1 2045 19 59 19 117 45 143 65 101 79 160 162 192 267 19 62 20
114 20 1530 0 1030 -3 1483 -11 1521 -12 61 -59 164 -89 196 -11 11 -20 26
-20 32 0 5 -3 10 -7 10 -5 0 -26 16 -48 36 -55 48 -148 92 -220 104 -38 6
-782 10 -2035 9 l-1975 0 -68 -24z"/>
</g>
</svg>
